<?xml version="1.0" encoding="UTF-8" standalone="no"?> <svg width="64" height="64" viewBox="0 0 64 64" fill="none" xmlns="http://www.w3.org/2000/svg">
<path d="M22.74 12.88C23.0052 12.88 23.2596 12.7746 23.4471 12.5871C23.6346 12.3995 23.74 12.1452 23.74 11.88V8.44995C23.74 8.18473 23.6346 7.93038 23.4471 7.74284C23.2596 7.55531 23.0052 7.44995 22.74 7.44995C22.4748 7.44995 22.2204 7.55531 22.0329 7.74284C21.8453 7.93038 21.74 8.18473 21.74 8.44995V11.89C21.7426 12.1534 21.8491 12.4052 22.0364 12.5906C22.2236 12.776 22.4765 12.88 22.74 12.88Z" fill="#FFCE00"/>
<path d="M36.7 13.23C36.5127 13.0438 36.2592 12.9392 35.995 12.9392C35.7309 12.9392 35.4774 13.0438 35.29 13.23L32.86 15.66C32.7554 15.7496 32.6703 15.86 32.6103 15.984C32.5503 16.1081 32.5166 16.2432 32.5112 16.3809C32.5059 16.5187 32.5291 16.656 32.5794 16.7843C32.6297 16.9126 32.7059 17.0292 32.8034 17.1267C32.9008 17.2241 33.0174 17.3004 33.1457 17.3506C33.274 17.4009 33.4114 17.4241 33.5491 17.4188C33.6868 17.4135 33.8219 17.3798 33.946 17.3197C34.0701 17.2597 34.1804 17.1747 34.27 17.07L36.7 14.64C36.8863 14.4526 36.9908 14.1992 36.9908 13.935C36.9908 13.6708 36.8863 13.4174 36.7 13.23V13.23Z" fill="#FFCE00"/>
<path d="M22.7399 15.1499C20.1687 15.1321 17.6598 15.9405 15.5827 17.4563C13.5057 18.972 11.9705 21.1147 11.2032 23.5689C10.4359 26.023 10.4772 28.6587 11.321 31.0876C12.1648 33.5164 13.7664 35.6101 15.8899 37.0599C16.2407 37.3144 16.6082 37.5449 16.9899 37.7499C17.1382 37.8273 17.3027 37.8684 17.4699 37.8699C17.645 37.8716 17.8185 37.8375 17.9799 37.7699C18.1374 37.6966 18.2696 37.5783 18.3599 37.4299V37.4299C20.1193 35.8758 22.3825 35.0125 24.7299 34.9999C25.3751 35.0094 26.018 35.0797 26.6499 35.2099C26.1007 37.5383 26.0428 39.9557 26.4802 42.3077C26.9175 44.6597 27.8404 46.8946 29.1899 48.8699C29.3398 49.0901 29.571 49.2417 29.8326 49.2914C30.0942 49.3411 30.3648 49.2848 30.5849 49.1349C30.8051 48.9851 30.9567 48.7539 31.0064 48.4923C31.0561 48.2307 30.9998 47.9601 30.8499 47.74C28.6676 44.508 27.7954 40.5674 28.41 36.7164C29.0246 32.8654 31.0801 29.392 34.1599 26.9999C34.1599 26.9999 34.1599 26.9999 34.1599 26.9999L34.3699 26.8299C34.4881 26.7226 34.5787 26.5884 34.6344 26.4388C34.6901 26.2892 34.7091 26.1284 34.6899 25.9699C34.6406 25.4371 34.5503 24.9089 34.4199 24.3899C33.7983 21.7594 32.3067 19.4158 30.1868 17.7388C28.0669 16.0618 25.443 15.1496 22.7399 15.1499V15.1499Z" fill="#FFCE00"/>
<path d="M11.21 37.3L8.77996 39.73C8.67528 39.8197 8.59026 39.93 8.53024 40.0541C8.47021 40.1781 8.43648 40.3133 8.43117 40.451C8.42585 40.5887 8.44905 40.726 8.49933 40.8544C8.5496 40.9827 8.62586 41.0992 8.72331 41.1967C8.82077 41.2941 8.93731 41.3704 9.06564 41.4207C9.19396 41.4709 9.3313 41.4941 9.46902 41.4888C9.60674 41.4835 9.74187 41.4498 9.86593 41.3898C9.99 41.3297 10.1003 41.2447 10.19 41.14L12.62 38.71C12.7838 38.5187 12.8694 38.2727 12.8597 38.021C12.85 37.7693 12.7456 37.5306 12.5675 37.3525C12.3894 37.1744 12.1507 37.07 11.899 37.0603C11.6473 37.0506 11.4013 37.1362 11.21 37.3V37.3Z" fill="#FFCE00"/>
<path d="M7.44 26.1899H4C3.73478 26.1899 3.48043 26.2953 3.29289 26.4828C3.10536 26.6704 3 26.9247 3 27.1899C3 27.4552 3.10536 27.7095 3.29289 27.897C3.48043 28.0846 3.73478 28.1899 4 28.1899H7.44C7.70522 28.1899 7.95957 28.0846 8.14711 27.897C8.33464 27.7095 8.44 27.4552 8.44 27.1899C8.44 26.9247 8.33464 26.6704 8.14711 26.4828C7.95957 26.2953 7.70522 26.1899 7.44 26.1899Z" fill="#FFCE00"/>
<path d="M11.21 17.0699C11.4013 17.2337 11.6474 17.3193 11.899 17.3096C12.1507 17.2999 12.3894 17.1956 12.5675 17.0175C12.7456 16.8394 12.85 16.6006 12.8597 16.349C12.8694 16.0973 12.7838 15.8512 12.62 15.6599L10.2 13.2299C10.1103 13.1252 10 13.0402 9.87594 12.9802C9.75188 12.9202 9.61675 12.8864 9.47903 12.8811C9.34131 12.8758 9.20398 12.899 9.07565 12.9493C8.94733 12.9996 8.83078 13.0758 8.73332 13.1733C8.63587 13.2707 8.55961 13.3873 8.50934 13.5156C8.45906 13.6439 8.43586 13.7812 8.44117 13.919C8.44649 14.0567 8.48022 14.1918 8.54025 14.3159C8.60027 14.4399 8.68529 14.5503 8.78997 14.6399L11.21 17.0699Z" fill="#FFCE00"/>
<path d="M43.6 21.75C40.0104 21.7558 36.5102 22.8705 33.5781 24.9415C30.6461 27.0125 28.4255 29.9388 27.22 33.32C26.4041 33.1236 25.5692 33.0164 24.73 33C21.6138 32.8581 18.5687 33.96 16.2648 36.0632C13.961 38.1664 12.5869 41.0987 12.445 44.215C12.3032 47.3313 13.405 50.3763 15.5082 52.6802C17.6115 54.9841 20.5438 56.3581 23.66 56.5C23.7532 56.5343 23.8509 56.5545 23.95 56.56H43.6C48.2161 56.56 52.6432 54.7263 55.9072 51.4622C59.1713 48.1981 61.005 43.7711 61.005 39.155C61.005 34.5389 59.1713 30.1119 55.9072 26.8478C52.6432 23.5837 48.2161 21.75 43.6 21.75V21.75Z" fill="#31BDED"/>
<path d="M57.46 37.63C57.423 35.2895 56.7301 33.0063 55.46 31.04C54.1685 29.086 52.3667 27.5229 50.25 26.52C48.1819 25.5564 45.8702 25.2426 43.62 25.62C45.7044 26.0143 47.7001 26.7834 49.51 27.89C50.3624 28.4451 51.1565 29.085 51.88 29.8C53.3185 31.2108 54.4342 32.9166 55.15 34.8C55.3346 35.2715 55.4948 35.7521 55.63 36.24C55.72 36.74 55.86 37.24 55.93 37.74C56.2446 39.8384 56.1495 41.9778 55.65 44.04C56.9117 42.1465 57.545 39.9038 57.46 37.63V37.63Z" fill="#67D7EF"/>
<path d="M18.24 45.84C18.0034 44.7391 18.0725 43.5944 18.44 42.53C18.8781 41.3476 19.6032 40.2927 20.55 39.46C19.82 39.5685 19.1232 39.8373 18.5094 40.2471C17.8956 40.6569 17.3802 41.1974 17 41.83C16.1802 43.1617 15.9127 44.7609 16.2545 46.2869C16.5963 47.8129 17.5204 49.1452 18.83 50C19.4317 50.4142 20.1169 50.6915 20.8374 50.8125C21.5578 50.9334 22.296 50.895 23 50.7C21.7915 50.3383 20.6919 49.682 19.8 48.79C19.0193 47.9683 18.4797 46.9477 18.24 45.84V45.84Z" fill="#67D7EF"/>
</svg>
